HIERARCHY
ROOT Hips
{
	OFFSET	0.000000	0.000000	0.000000
	CHANNELS 6 Xposition Yposition Zposition Zrotation Xrotation Yrotation
	JOINT LeftUpLeg
	{
		OFFSET	10.400868	-0.616521	2.124034
		CHANNELS 3 Zrotation Xrotation Yrotation
		JOINT LeftLeg
		{
			OFFSET	0.352537	-41.535095	-2.050072
			CHANNELS 3 Zrotation Xrotation Yrotation
			JOINT LeftFoot
			{
				OFFSET	-0.352537	-41.565321	-3.489960
				CHANNELS 3 Zrotation Xrotation Yrotation
				JOINT LeftFootHeel
				{
					OFFSET	0.523297	-9.012733	-4.729048
					CHANNELS 3 Zrotation Xrotation Yrotation
					End Site
					{
						OFFSET	-1.845620	-0.000002	17.812028
					}
				}
			}
		}
	}
	JOINT RightUpLeg
	{
		OFFSET	-10.400868	-0.616521	2.124034
		CHANNELS 3 Zrotation Xrotation Yrotation
		JOINT RightLeg
		{
			OFFSET	-0.352537	-41.535095	-2.050072
			CHANNELS 3 Zrotation Xrotation Yrotation
			JOINT RightFoot
			{
				OFFSET	0.352537	-41.565321	-3.489960
				CHANNELS 3 Zrotation Xrotation Yrotation
				JOINT RightFootHeel
				{
					OFFSET	-0.523297	-9.012733	-4.729048
					CHANNELS 3 Zrotation Xrotation Yrotation
					End Site
					{
						OFFSET	1.845620	-0.000002	17.812028
					}
				}
			}
		}
	}
	JOINT Spine
	{
		OFFSET	0.000000	14.066495	0.622008
		CHANNELS 3 Zrotation Xrotation Yrotation
		JOINT Spine1
		{
			OFFSET	0.000000	11.326443	0.000000
			CHANNELS 3 Zrotation Xrotation Yrotation
			JOINT LeftShoulder
			{
				OFFSET	5.573420	28.820108	1.551455
				CHANNELS 3 Zrotation Xrotation Yrotation
				JOINT LeftArm
				{
					OFFSET	11.077346	-0.652064	-0.274831
					CHANNELS 3 Zrotation Xrotation Yrotation
					JOINT LeftForeArm
					{
						OFFSET	3.317875	-35.016692	0.191745
						CHANNELS 3 Zrotation Xrotation Yrotation
						JOINT LeftHand
						{
							OFFSET	0.521886	-23.143868	7.546822
							CHANNELS 3 Zrotation Xrotation Yrotation
							End Site
							{
								OFFSET	-0.335938	-11.014202	2.865907
							}
						}
					}
				}
			}
			JOINT RightShoulder
			{
				OFFSET	-5.573420	28.820108	1.551455
				CHANNELS 3 Zrotation Xrotation Yrotation
				JOINT RightArm
				{
					OFFSET	-11.077346	-0.652064	-0.274831
					CHANNELS 3 Zrotation Xrotation Yrotation
					JOINT RightForeArm
					{
						OFFSET	-3.317875	-35.016692	0.191745
						CHANNELS 3 Zrotation Xrotation Yrotation
						JOINT RightHand
						{
							OFFSET	-0.521884	-23.143868	7.546822
							CHANNELS 3 Zrotation Xrotation Yrotation
							End Site
							{
								OFFSET	0.335938	-11.014202	2.865907
							}
						}
					}
				}
			}
			JOINT Neck
			{
				OFFSET	0.000000	31.425642	0.514363
				CHANNELS 3 Zrotation Xrotation Yrotation
				JOINT Head
				{
					OFFSET	0.000000	11.901169	2.272744
					CHANNELS 3 Zrotation Xrotation Yrotation
					End Site
					{
						OFFSET	0.000000	13.820749	0.378790
					}
				}
			}
		}
	}
}
MOTION
Frames:     11
Frame Time: 0.016667
-34.244673	61.939101	169.883058	-3.522533	9.937673	57.422283	42.270008	5.311943	10.704455	1.559973	18.257288	5.772393	-22.409655	-14.234370	-4.677554	0.	0.	0.	-93.922272	-37.213100	-68.006844	87.976326	69.706070	-85.355507	10.194862	-2.722175	-1.460755	0.	0.	0.	0.000000	0.000000	0.000003	10.862200	22.501291	-6.650186	3.140628	-2.160105	0.298730	7.083656	-1.859813	29.301495	4.444673	7.915487	11.548445	-18.480581	9.875938	48.176620	-29.811144	-6.138754	-6.246974	-91.726974	-32.135128	-63.234932	12.334082	-6.214451	-42.748577	30.989914	13.555642	-41.803192	-9.675571	-4.672750	-4.070692	9.461051	-10.156594	-45.962105	
-34.175571	61.947826	169.794750	-3.521835	9.937215	57.415234	42.288471	5.230884	10.818280	1.566876	18.491966	5.699221	-22.948374	-14.237904	-4.920288	0.	0.	0.	-93.921463	-37.256512	-67.945099	87.632805	69.770721	-85.079872	10.285752	-2.594498	-1.466789	0.	0.	0.	-0.000001	-0.000001	0.000000	10.828668	22.456135	-6.719838	3.123405	-2.162824	0.287929	7.187090	-1.840049	29.253462	4.330073	7.759227	11.403430	-18.331558	9.694857	48.043064	-29.740812	-6.111053	-6.197311	-91.629288	-32.168846	-63.199707	12.295779	-6.155040	-42.605000	30.930363	13.493699	-41.623425	-9.681936	-4.641795	-4.051469	9.496683	-10.141524	-45.906799	
-34.059684	61.949667	169.724444	-3.522222	9.909840	57.344566	42.320496	5.214583	10.899835	1.547211	18.675451	5.720728	-23.375603	-14.212943	-5.134860	0.	0.	0.	-93.900978	-37.326260	-67.901085	87.341553	69.843536	-84.807594	10.280816	-2.424304	-1.510810	0.	0.	0.	0.000000	-0.000001	0.000000	10.834298	22.472523	-6.703979	3.079796	-2.196095	0.241244	7.285030	-1.888472	29.097067	4.267571	7.691822	11.299893	-18.113102	9.544443	47.927708	-29.707771	-6.098871	-6.200790	-91.536407	-32.220360	-63.329842	12.407011	-6.220021	-42.733768	30.884487	13.515700	-41.544312	-9.750735	-4.628094	-4.150128	9.505287	-10.189669	-45.803986	
-33.970431	61.943805	169.641387	-3.513405	9.904397	57.256836	42.321350	5.241026	10.965487	1.530508	18.812275	5.871239	-23.875292	-14.127962	-5.450036	0.	0.	0.	-93.937080	-37.361977	-67.851059	87.069206	69.784485	-84.482887	10.139690	-2.238186	-1.590504	0.	0.	0.	0.000000	0.000000	0.000001	10.809950	22.472879	-6.685027	3.089772	-2.206493	0.247732	7.290876	-1.999242	28.757408	4.276023	7.674018	11.180779	-17.933189	9.384385	48.032848	-29.668249	-6.092752	-6.174079	-91.497871	-32.187912	-63.322109	12.455648	-6.230272	-42.823833	30.925634	13.397206	-41.643879	-9.752567	-4.611488	-4.139586	9.406177	-10.292167	-45.808697	
-33.888205	61.956833	169.562341	-3.510443	9.902615	57.227795	42.322048	5.247167	10.987416	1.532218	18.912916	6.057734	-24.456871	-14.012963	-5.810555	0.	0.	0.	-93.958809	-37.323212	-67.885414	86.746880	69.789658	-84.102135	9.893406	-2.005991	-1.652892	0.	0.	0.	0.000000	0.000000	-0.000001	10.804285	22.415848	-6.739469	3.110721	-2.169636	0.269238	7.259908	-2.124206	28.462008	4.301317	7.597379	11.075519	-17.820915	9.230206	48.179054	-29.648069	-6.075946	-6.082402	-91.483200	-32.092419	-63.078888	12.385320	-6.253461	-42.780701	30.954012	13.245398	-41.829140	-9.741417	-4.569002	-4.112309	9.336411	-10.360547	-45.816307	
-33.831176	61.997639	169.464654	-3.557950	9.915308	57.146610	42.326923	5.267106	11.063571	1.526881	19.020285	6.055831	-25.014704	-13.996311	-5.989083	0.	0.	0.	-93.981506	-37.372154	-68.021568	86.233521	69.802917	-83.561577	9.532172	-1.693057	-1.739801	0.	0.	0.	-0.000001	0.000001	0.000002	10.782037	22.349983	-6.680356	3.070360	-2.200015	0.244140	7.299534	-2.136270	28.390703	4.193919	7.384259	11.039494	-17.771498	9.072567	48.177517	-29.640238	-6.081443	-6.089658	-91.398064	-31.995564	-62.845173	12.337913	-6.351369	-42.707932	31.085810	13.199300	-41.901054	-9.742510	-4.559625	-4.122260	9.375979	-10.386034	-45.824081	
-33.754194	62.016010	169.423067	-3.588508	9.921920	57.029472	42.319195	5.272531	11.000635	1.520913	19.191580	5.972060	-25.529371	-14.105919	-5.967770	0.	0.	0.	-93.982452	-37.468136	-68.164520	85.951164	69.897858	-83.249084	9.320100	-1.575688	-1.840425	0.	0.	0.	-0.000001	-0.000001	0.000000	10.692825	22.294035	-6.614857	3.017379	-2.253201	0.242064	7.411769	-2.042718	28.439112	4.013645	7.190166	11.002686	-17.847227	8.878583	48.051308	-29.617586	-6.095466	-6.113269	-91.283501	-32.020100	-62.792408	12.334532	-6.408409	-42.718277	31.165367	13.276248	-41.862568	-9.747869	-4.603606	-4.124902	9.474759	-10.314572	-45.830414	
-33.707213	62.027332	169.330553	-3.592405	9.883576	56.957428	42.336739	5.266913	10.784414	1.470400	19.341198	6.074237	-25.992281	-14.201558	-6.004353	0.	0.	0.	-93.931053	-37.562298	-68.219017	85.523376	70.005188	-82.829834	9.250788	-1.437372	-1.933873	0.	0.	0.	-0.000001	0.000000	0.000000	10.635244	22.315363	-6.640556	2.995922	-2.315596	0.210210	7.493779	-2.062997	28.302662	3.928607	7.209946	11.105206	-17.863060	8.811528	48.094223	-29.590240	-6.121483	-6.152091	-91.205795	-32.150249	-62.810951	12.297715	-6.370234	-42.798916	31.124514	13.358976	-41.864872	-9.750231	-4.633477	-4.144100	9.585470	-10.276828	-45.739559	
-33.640117	61.982243	169.269103	-3.633245	9.881166	56.875286	42.345798	5.290093	10.757384	1.444412	19.431522	6.028078	-26.405924	-14.360451	-6.019082	0.	0.	0.	-94.009598	-37.689556	-68.279259	85.460114	70.051941	-82.795822	9.164391	-1.356214	-1.977226	0.	0.	0.	-0.000001	0.000000	0.000003	10.598916	22.276321	-6.690032	2.996827	-2.289958	0.182964	7.437881	-2.200086	27.909153	3.951130	7.301944	11.305373	-17.909725	8.811571	48.142326	-29.584982	-6.085256	-6.122643	-91.204948	-32.264145	-62.858971	12.281034	-6.303445	-42.908489	31.041899	13.335902	-41.996220	-9.793939	-4.561365	-4.192238	9.705034	-10.367038	-45.617199	
-33.579432	61.942744	169.191938	-3.699999	9.899158	56.769081	42.349686	5.350930	10.884551	1.443135	19.401773	6.070082	-26.834068	-14.386312	-6.197585	0.	0.	0.	-94.125206	-37.821087	-68.485603	85.312134	70.152611	-82.642952	8.973271	-1.228221	-2.019548	0.	0.	0.	0.000001	0.000002	0.000001	10.579383	22.202742	-6.725059	2.968311	-2.247353	0.167242	7.361323	-2.316073	27.551802	3.965181	7.329508	11.385833	-17.689367	8.958870	48.280437	-29.607845	-6.039874	-6.070945	-91.187302	-32.346584	-62.908920	12.283822	-6.316840	-43.018982	31.074202	13.293703	-42.131020	-9.828291	-4.508315	-4.201077	9.728054	-10.416801	-45.586369	
-33.517971	61.905513	169.080646	-3.707295	9.884425	56.652962	42.305454	5.496547	10.955644	1.502757	19.359201	6.073265	-27.282486	-14.470687	-6.355484	0.	0.	0.	-94.192558	-37.931232	-68.700684	85.013939	70.312302	-82.306839	8.712247	-1.075690	-2.092316	0.	0.	0.	-0.000001	0.000000	-0.000003	10.498945	22.229963	-6.748146	2.953060	-2.245467	0.137983	7.328535	-2.353289	27.355995	3.948266	7.243784	11.300493	-17.329256	8.975768	48.396069	-29.566916	-6.050504	-6.047480	-91.098091	-32.375748	-62.831001	12.271700	-6.407691	-42.946465	31.124838	13.156692	-42.174648	-9.813152	-4.491010	-4.202751	9.737885	-10.418725	-45.617397	
